<svg width="43" height="43" viewBox="0 0 43 43" fill="none" xmlns="http://www.w3.org/2000/svg">
<circle opacity="0.4" cx="21.3184" cy="21.3184" r="20.8184" transform="rotate(-180 21.3184 21.3184)" fill="#AEAEAE" stroke="#AEAEAE"/>
<path d="M19.4647 15.565C19.6335 15.565 19.8023 15.6272 19.9355 15.7604C20.0594 15.8858 20.1289 16.0549 20.1289 16.2312C20.1289 16.4075 20.0594 16.5766 19.9355 16.702L15.0145 21.623L19.9355 26.544C20.0594 26.6693 20.1289 26.8385 20.1289 27.0147C20.1289 27.191 20.0594 27.3601 19.9355 27.4855C19.6779 27.7431 19.2516 27.7431 18.994 27.4855L13.6022 22.0937C13.3446 21.8361 13.3446 21.4098 13.6022 21.1522L18.994 15.7604C19.1272 15.6272 19.296 15.565 19.4647 15.565Z" fill="#172A30"/>
<path d="M14.2241 20.9567H29.1736C29.5378 20.9567 29.8398 21.2587 29.8398 21.6229C29.8398 21.9871 29.5378 22.2891 29.1736 22.2891H14.2241C13.86 22.2891 13.5579 21.9871 13.5579 21.6229C13.5579 21.2587 13.86 20.9567 14.2241 20.9567Z" fill="#172A30"/>
</svg>
