<svg width="43" height="43" viewBox="0 0 43 43" fill="none" xmlns="http://www.w3.org/2000/svg">
<circle opacity="0.4" cx="21.3184" cy="21.3184" r="20.8184" fill="#AEAEAE" stroke="#AEAEAE"/>
<path d="M23.172 27.0717C23.0032 27.0717 22.8344 27.0095 22.7012 26.8763C22.5773 26.7509 22.5078 26.5818 22.5078 26.4055C22.5078 26.2293 22.5773 26.0601 22.7012 25.9347L27.6222 21.0138L22.7012 16.0928C22.5773 15.9674 22.5078 15.7982 22.5078 15.622C22.5078 15.4457 22.5773 15.2766 22.7012 15.1512C22.9588 14.8936 23.3852 14.8936 23.6427 15.1512L29.0345 20.543C29.2921 20.8006 29.2921 21.2269 29.0345 21.4845L23.6427 26.8763C23.5095 27.0095 23.3407 27.0717 23.172 27.0717Z" fill="#172A30"/>
<path d="M28.4126 21.6801H13.4631C13.0989 21.6801 12.7969 21.378 12.7969 21.0139C12.7969 20.6497 13.0989 20.3477 13.4631 20.3477H28.4126C28.7768 20.3477 29.0788 20.6497 29.0788 21.0139C29.0788 21.378 28.7768 21.6801 28.4126 21.6801Z" fill="#172A30"/>
</svg>
